<?xml version="1.0" encoding="utf-8"?>
<!-- Generator: Adobe Illustrator 26.0.1, SVG Export Plug-In . SVG Version: 6.00 Build 0)  -->
<svg version="1.1" id="Layer_2_xA0_Image_00000171712003306919517650000003596015763837071287_"
	 xmlns="http://www.w3.org/2000/svg" xmlns:xlink="http://www.w3.org/1999/xlink" x="0px" y="0px" viewBox="0 0 1268 555"
	 style="enable-background:new 0 0 1268 555;" xml:space="preserve">
<style type="text/css">
	.st0{fill:#FFFFFF;}
	.st1{fill:#FFB401;}
</style>
<path class="st0" d="M23,468c4.7-9.9,9.8-13.4,16.9-10.6c3.7,1.4,7.1,3.6,10.8,5c16.5,6.2,33.5,8.3,51,5.3
	c8.8-1.5,16.1-8.9,15.3-17.3c-0.6-6.2-4.4-11.1-10.7-13.7c-9.1-3.7-18.9-3.7-28.3-5.6c-10.5-2.1-21-4.3-30.3-9.5
	c-10.7-5.9-19.7-14-20.7-27.4c-1.2-15.9,2.9-29.7,17.4-38.7c18.1-11.2,37.9-11.1,58-8.3c11,1.5,21.5,4.3,30.6,11
	c5.7,4.2,7.6,11.8,3.7,18.2c-3.3,5.5-9.6,6.3-16.2,2.5c-11.2-6.6-22.6-11-35.6-10c-6.6,0.5-13.8,0.7-20.4,3.2
	c-8.4,3.2-13.7,13-9.7,21c2.9,5.9,9,8.3,15.1,9.6c10.6,2.3,21.2,4.1,31.8,6.2c10.8,2.1,21.1,5.6,30.3,12.1
	c10.7,7.6,15.7,23.5,12.3,37.5c-4.3,17.6-16.7,26-32.7,31.6c-15.5,5.4-30.8,3.5-46.3,1.4c-3.8-0.5-8.1,0.4-11.4-1
	c-8.9-4-18.3-7-26.5-12.4c-2.5-1.7-3.2-4.6-4.6-7C23,470,23,469,23,468z"/>
<path class="st0" d="M1040,531c-7.1-4.7-9.3-11.3-9.2-19.7c0.4-24.7,0-49.3,0.2-74c0.2-23.2,16-48.6,44.1-52.8
	c7.6-1.2,15.1-1.4,22.8-0.7c29.4,2.6,47.6,35.3,43.7,58.9c-2.2,13.4-5.9,25.2-15.5,34.7c-15,14.9-38.6,18.7-57.9,10.1
	c-13.3-5.9-11-5.4-11.2,6.8c-0.1,7.2-0.3,14.3,0.1,21.5c0.4,7.4-1.9,12.7-9.2,15.2C1045.3,531,1042.7,531,1040,531z M1115,438.2
	c1.5-17.9-13.2-31.1-27.9-31.2c-19.3-0.1-28.9,11.3-29.9,30.6c-0.9,18.2,11.1,31,27.4,31.5C1101.8,469.6,1115.7,456.7,1115,438.2z"
	/>
<path class="st0" d="M1250,462c-2.8,16.2-8.6,19.1-18.9,24.1c-7.9,3.8-16.5,6-24.9,6.6c-12.3,1-25,1.6-37.1-2.7
	c-5.9-2.1-11.6-4.1-14-10.9c-1.5-4.5-0.8-8.1,2.5-11.4c3.2-3.4,7.3-3.9,11-2.1c12.7,6,26.2,5.7,39.7,5.2c7.9-0.3,12-3.2,12.9-7.9
	c1-5.5-0.7-8.7-6-10.3c-4.8-1.4-8.3-2.7-13.5-2.5c-3.5-0.2-9-0.5-16.2-1.8c-9.9-1.9-11.7-2.3-21.1-6.4c-8.6-3.7-11.4-11.2-13.3-19.3
	c-4.3-17.8,11.5-37.8,31.5-39.2c14.8-1.1,29.1,0.6,43.6,2.5c7.9,1.1,12.9,6,12.9,12.8c0.1,6.5-4.1,10.8-10.7,10.2
	c-6.1-0.5-12.2-1.3-18.1-3.3c-8.4-2.8-17.1-2.1-25.6-0.5c-2.9,0.6-5.8,1.8-7.3,4.7c-2.8,5.6-0.6,10.6,5.5,12.5
	c7.7,2.4,15.7,2.7,23.6,3.6c12.6,1.3,24.4,4.4,34.8,12.2c5.8,4.4,6.5,9.2,8.2,15.4C1249.6,455.8,1250,459.7,1250,462z"/>
<path class="st1" d="M634.6,14.8c45.6,0.7,81.5,19.8,106.8,57.7c14.5,21.8,20.8,46.3,19.6,72.5c-0.1,2.3-0.4,4.4-2.7,5.5
	c-2.6,1.3-4.4-0.4-6.3-1.8c-16.6-12.8-35.7-20.3-55.7-25.9c-26.3-7.4-53.4-10.7-80.1-16.2c-14.8-3-29.7-6-42.8-14.2
	c-12.2-7.7-20.1-18-19.4-33.1c0.6-13.8,7.6-23.6,19.5-30.4C588.9,20.1,615,14.1,634.6,14.8z"/>
<path class="st1" d="M628.5,268.2c-44.3-1.8-82.6-24.9-106.4-70.4c-9.4-18-13.5-37.9-12.2-58.5c0.4-6.1,3.3-7.9,7.9-4.5
	c24.8,18.6,53.8,26.2,83.6,32c24,4.7,48.4,7.2,72,13.7c11.9,3.3,23.7,7,32.8,16c17.8,17.4,13.9,45-8.1,56.9
	C678.6,264,657.6,268.1,628.5,268.2z"/>
<path class="st0" d="M371.1,449.6c0,9.2,0,18.3,0,27.5c0,7.7-3.2,11.3-10.7,12.5c-6,0.9-12.6-3.1-14.6-8.9c-0.8-2.4-0.9-4.9-0.9-7.4
	c0-15.3,0-30.7,0-46c0-12.8-6.7-19.7-19.5-20.2c-12.9-0.5-22.3,6.9-23.5,18.7c-1.7,16.5-0.4,33-0.8,49.4c-0.1,3.1-0.4,5.9-2.2,8.5
	c-3.5,4.9-8.7,7.3-13.7,5.9c-4.7-1.2-9.1-7.1-9.1-12.5c-0.1-15,0-30-0.1-45c-0.1-9.1-2.5-17.3-11.4-21.7c-7.2-3.6-14.3-3.5-21.9-0.1
	c-8.6,3.7-10.6,10.1-10.5,18.4c0.1,15.2,0,30.3,0,45.5c0,7.4-4,12.7-10.9,15c-6.5,2.1-12.1-0.8-14.1-7.3c-0.9-2.7-1-5.5-1-8.4
	c0-16.7,0.3-33.3-0.1-50c-0.5-22.6,18.8-38.7,37.5-40.3c12.9-1.1,25.6,0.4,36.5,8.7c0.8,0.6,1.7,1,2.5,1.7c6.6,5.9,6.7,6,13,0.4
	c21.2-18.7,49.5-12.6,65.4,2.4c7.3,6.9,10,16,10.2,25.8C371.2,431.3,371.1,440.5,371.1,449.6C371.1,449.6,371.1,449.6,371.1,449.6z"
	/>
<path class="st0" d="M716,493.1c-17.3,1.3-34.2-5.2-50.9-12.6c-1.2-0.5-2.3-1.4-3.3-2.2c-5.6-4.4-7.3-9.9-4.5-14.7
	c3.5-5.9,10.8-8.5,16.9-5.4c10.4,5.2,21.3,8.7,32.7,10.2c10,1.3,20,1,29.8-1c11.3-2.4,17.1-13,12.6-22.7c-3.5-7.5-11-9.3-18.2-10.4
	c-18.1-2.9-36.2-5.5-52.9-13.6c-2.4-1.2-4.8-2.3-6.6-4.4c-16.7-18.5-18.3-36.6-0.7-55.2c7-7.4,16.1-10.5,25.5-12.9
	c19.7-5,39-2.7,57.9,3.8c6.5,2.3,13.1,5.3,16.3,12.2c2.7,5.6,1.9,11.1-1.7,14.3c-3.9,3.5-8.2,3.3-14.2,0.1
	c-9.6-5.2-19.8-8.6-30.8-8.6c-8.5,0-16.9-0.6-25.3,2.1c-7,2.2-10.9,7-11.4,15.2c-0.3,5.6,3.6,10.7,9.7,13c11.9,4.5,24.6,5.7,37,8.2
	c9.7,1.9,19.3,4.2,27.7,9.3c10,6.1,16.9,14.3,17.6,27.1c1.1,21.3-9.5,34.8-27.4,43.2c-8,3.8-17.4,4.1-26.3,4.7
	C722.8,493.2,720.1,493.1,716,493.1z"/>
<path class="st0" d="M411.1,502c0,5.2,0.1,10.3,0,15.5c-0.1,7.2-4.6,11.4-12.2,11.6c-9,0.1-13.9-3.6-13.9-11.3
	c-0.2-27.3-1.6-54.8,0.3-82c2.9-42,41.3-61.5,75.1-49.4c11.8,4.2,22.1,10.2,28.3,21.5c7.3,13.3,9,27.6,6.4,42.6
	c-1.7,10-6.2,18.4-12.7,26.1c-3.1,3.7-6.5,6.6-10.8,8.5c-9,4.1-14.6,5.3-24.6,6.2c-10.7,0.9-18.8-2.1-27.6-6.1
	c-1.3-0.6-5.8-4.1-7.4-3c-1.4,0.9-0.8,2.8-0.8,4.2C411.1,491.7,411.1,496.9,411.1,502C411.1,502,411.1,502,411.1,502z M438.9,407.1
	c-16.4,0-27.8,12.7-27.8,31.1c0,17.9,12,30.6,28.9,30.8c8.3,0.1,15.5-2.5,21.3-8.1c5.8-5.5,7.8-13.7,8.2-20.8
	C470.5,419.4,458.4,407.1,438.9,407.1z"/>
<path class="st0" d="M895,448.8c0,9.3,0.2,18.7-0.1,28c-0.3,9.3-10.1,16.4-17.6,12.8c-4.2-2-6.2-5.9-7.5-10.1c-1-3-0.9-6.2-0.9-9.4
	c0-14.2,0-28.3,0-42.5c-0.1-12.6-7.5-20.1-20.1-20.5c-14.8-0.5-23.7,5.3-27.1,17.5c-0.6,2-0.7,4.3-0.7,6.4c-0.1,13.2,0,26.3,0,39.5
	c0,3-0.2,6-0.7,8.9c-1.3,7.5-5.3,11.3-12.1,11.4c-6.6,0.1-12-4.8-13.1-12c-0.2-1-0.2-2-0.2-3c0.3-25.5-1-50.9-0.6-76.4
	c0.2-13.3-0.9-26.6,0.5-39.8c1-9.2,7.5-15.1,16.1-13.4c5.9,1.2,10,7.1,10.1,14.8c0.1,8,0,16,0.1,24c0.1,5.4,1.4,6.6,6.1,4.3
	c6.7-3.3,13.4-5.4,20.9-5.8c27.5-1.5,45.2,13,46.8,38.8C895.5,431.1,895.1,439.9,895,448.8C895,448.8,895,448.8,895,448.8z"/>
<path class="st0" d="M605.8,492.2c-16-0.2-30.7-3.7-42.1-16c-12.7-13.8-15.9-30.5-12.7-48.3c3.4-19.1,12.7-34.9,31.6-41.9
	c22.4-8.3,44.4-5.8,60.7,12.9c9.2,10.6,8.9,29.2-0.5,39.7c-1.5,1.7-3.4,2.6-5.4,3.5c-5.7,2.4-11.3,4.8-17,7.3c-3,1.3-6,1.9-9.3,1.5
	c-9.6-1.2-19.2,0.1-28.8,1c-4.2,0.4-4.6,1.8-2.3,5.5c5.5,8.9,14.3,11.6,23.8,12.5c9.6,0.9,18.9-0.5,27.8-4.6
	c6.1-2.8,12.2-1,14.6,4.2c2.7,5.7,0.5,12.1-5.6,15.1C629.6,489.8,618,492.4,605.8,492.2z M594.1,431.4c8.9,0.7,17.6-0.2,25.6-4.7
	c6.3-3.5,7-12.5,1.5-17.1c-13-11.1-35.7-4.5-42.7,11.7c-1,2.3-1.6,4.7-1.4,7.3c0.1,2,0.8,3,3.1,2.9
	C584.8,431.3,589.5,431.4,594.1,431.4z"/>
<path class="st0" d="M967.6,382.8c22.2-0.7,52,20.8,53.2,53c0.9,24-13.8,47-39,53.7c-12,3.2-18.7,3.3-30.6,1.6
	c-3.2-0.7-11.3-2.8-14.9-5c-0.8-0.8-2.8-1.9-4.6-3.3c-11.2-7.9-19.6-20.4-22.6-34.4c-4-19.3,1.3-36.8,15.5-50.2
	C935.4,388,949,382.6,967.6,382.8z M993,436.4c1.4-7.1-1.7-14.3-6.5-20.3c-9.7-12.1-29.3-11.4-40-4.1c-14.6,9.9-15,36.6-3.9,48.2
	c8.3,8.8,18.6,10.8,29.3,7.9C984.2,464.7,992.9,450.8,993,436.4z"/>
<path class="st0" d="M510,415.4c0-17.3,0-34.6,0-51.9c0-2.5,0.2-5,0.7-7.4c1.6-7.8,5.8-11.6,12.3-11.1c6.9,0.5,12.9,6.2,12.9,13.4
	c0.1,8.8,0.6,17.5,0.3,26.4c-0.6,22.3-0.3,44.6-0.1,66.9c0.1,8.1,0.9,16.2-0.1,24.4c-1.2,11-7.4,15.9-17,12.9
	c-5-1.6-7.7-4.8-8.3-10.1c-1.8-17.4-0.4-34.9-0.9-52.4C510,422.8,510,419.1,510,415.4z"/>
<path class="st0" d="M188.1,437.4c0,12,0,24,0,36c0,5.8-1.7,10.7-6.9,14.1c-6.2,4-14.1,2.1-17.3-4.6c-2.3-5-2.6-10.4-2.6-15.6
	c0-20.3,0.6-40.6,0.5-60.8c0-6-1.4-11.8,3.8-16.7c7.4-6.9,18.6-4.3,21.6,5.3c0.8,2.4,0.9,4.9,0.9,7.4
	C188.1,414.1,188.1,425.7,188.1,437.4z"/>
<path class="st0" d="M190.1,357c0,8.5-6.4,15.1-14.7,15c-8.7-0.1-15.1-7.3-15.6-16.1c-0.5-7.8,9-14.8,15.4-14.7
	C183.1,341.4,190.1,348.8,190.1,357z"/>
</svg>
